<svg width="1268" height="1740" viewBox="0 0 1268 1740" fill="none" xmlns="http://www.w3.org/2000/svg">
<path d="M633.614 1098.61C785.589 1098.61 908.267 975.934 908.267 823.959V274.653C908.267 122.678 785.589 0 633.614 0C481.639 0 358.961 122.678 358.961 274.653V823.959C358.961 975.934 481.639 1098.61 633.614 1098.61ZM1174.68 823.959C1129.82 823.959 1092.28 856.917 1084.96 901.777C1047.42 1116.92 859.745 1281.71 633.614 1281.71C407.483 1281.71 219.803 1116.92 182.268 901.777C174.943 856.917 137.408 823.959 92.5475 823.959C36.7014 823.959 -7.24306 873.397 0.996527 928.327C45.8565 1202.98 265.579 1418.12 542.063 1457.49V1647.92C542.063 1698.27 583.261 1739.47 633.614 1739.47C683.967 1739.47 725.165 1698.27 725.165 1647.92V1457.49C1001.65 1418.12 1221.37 1202.98 1266.23 928.327C1275.39 873.397 1230.53 823.959 1174.68 823.959Z" fill="#2992A0"/>
</svg>
