<svg width="1057" height="1057" viewBox="0 0 1057 1057" fill="none" xmlns="http://www.w3.org/2000/svg">
<path d="M528.711 264.665C382.958 264.665 264.665 382.958 264.665 528.711C264.665 674.465 382.958 792.758 528.711 792.758C674.465 792.758 792.758 674.465 792.758 528.711C792.758 382.958 674.465 264.665 528.711 264.665ZM528.711 0.618652C237.204 0.618652 0.618652 237.204 0.618652 528.711C0.618652 820.219 237.204 1056.8 528.711 1056.8C820.219 1056.8 1056.8 820.219 1056.8 528.711C1056.8 237.204 820.219 0.618652 528.711 0.618652ZM528.711 951.186C295.294 951.186 106.237 762.128 106.237 528.711C106.237 295.294 295.294 106.237 528.711 106.237C762.128 106.237 951.186 295.294 951.186 528.711C951.186 762.128 762.128 951.186 528.711 951.186Z" fill="#D22626"/>
</svg>
