<svg width="211" height="157" viewBox="0 0 211 157" fill="none" xmlns="http://www.w3.org/2000/svg">
<g clip-path="url(#clip0_1053_17)">
<rect width="211" height="157" rx="30" fill="#2992A0"/>
<path d="M173.091 26.2941C164.816 23.9882 155.722 23 147 23C132.464 23 116.809 25.6353 106 32.8824C95.1909 25.6353 79.5364 23 65 23C50.4636 23 34.8091 25.6353 24 32.8824V129.4C24 131.047 25.8636 132.694 27.7273 132.694C28.4727 132.694 28.8455 132.365 29.5909 132.365C39.6545 128.082 54.1909 125.118 65 125.118C79.5364 125.118 95.1909 127.753 106 135C116.064 129.4 134.327 125.118 147 125.118C159.3 125.118 171.973 127.094 182.409 132.035C183.155 132.365 183.527 132.365 184.273 132.365C186.136 132.365 188 130.718 188 129.071V32.8824C183.527 29.9176 178.682 27.9412 173.091 26.2941ZM38.9091 115.235V39.4706C47.1091 37.1647 56.0545 36.1765 65 36.1765C74.9891 36.1765 88.3327 38.8776 98.5455 42.6988V118.464C88.3327 114.642 74.9891 111.941 65 111.941C56.0545 111.941 47.1091 112.929 38.9091 115.235ZM173.091 115.235C164.891 112.929 155.945 111.941 147 111.941C137.011 111.941 123.667 114.642 113.455 118.464V42.6988C123.667 38.8118 137.011 36.1765 147 36.1765C155.945 36.1765 164.891 37.1647 173.091 39.4706V115.235Z" fill="white"/>
<path d="M149 62.0294C156.04 62.0294 162.84 62.6912 169 63.9412V52.7647C162.68 51.6618 155.88 51 149 51C138.76 51 129.32 52.1765 121 54.4559V66C128.92 63.4265 138.44 62.0294 149 62.0294Z" fill="white"/>
<path d="M149 82.0294C156.04 82.0294 162.84 82.6912 169 83.9412V72.7647C162.68 71.6618 155.88 71 149 71C138.76 71 129.32 72.1765 121 74.4559V86C128.92 83.5 138.44 82.0294 149 82.0294Z" fill="white"/>
<path d="M149 102.029C156.04 102.029 162.84 102.691 169 103.941V92.7647C162.68 91.6618 155.88 91 149 91C138.76 91 129.32 92.1765 121 94.4559V106C128.92 103.426 138.44 102.029 149 102.029Z" fill="white"/>
</g>
<defs>
<clipPath id="clip0_1053_17">
<rect width="211" height="157" fill="white"/>
</clipPath>
</defs>
</svg>
