<svg width="211" height="157" viewBox="0 0 211 157" fill="none" xmlns="http://www.w3.org/2000/svg">
<g clip-path="url(#clip0_994_16)">
<rect width="211" height="157" rx="30" fill="#2992A0"/>
<path d="M120.443 94.6175L106.011 81.44L106.182 81.2825C116.068 71.0975 123.114 59.39 127.261 47H143.909V36.5H104.136V26H92.7727V36.5H53V46.9475H116.466C112.659 57.08 106.636 66.6875 98.4545 75.0875C93.1705 69.68 88.7955 63.7475 85.3295 57.5H73.9659C78.1136 66.0575 83.7955 74.1425 90.8977 81.44L61.9773 107.795L70.0455 115.25L98.4545 89L116.125 105.328L120.443 94.6175ZM152.432 68H141.068L115.5 131H126.864L133.227 115.25H160.216L166.636 131H178L152.432 68ZM137.545 104.75L146.75 82.0175L155.955 104.75H137.545Z" fill="white"/>
</g>
<defs>
<clipPath id="clip0_994_16">
<rect width="211" height="157" fill="white"/>
</clipPath>
</defs>
</svg>
