<svg width="211" height="157" viewBox="0 0 211 157" fill="none" xmlns="http://www.w3.org/2000/svg">
<g clip-path="url(#clip0_994_16)">
<rect width="211" height="157" rx="30" fill="#5CB7C4"/>
<path d="M108.623 88.7391L100.409 80.6214L100.506 80.5243C106.133 74.2501 110.144 67.0379 112.504 59.4053H121.981V52.937H99.3415V46.4688H92.8732V52.937H70.2341V59.373H106.36C104.193 65.6149 100.765 71.5334 96.1073 76.708C93.0996 73.3769 90.6093 69.7223 88.6364 65.8736H82.1681C84.5291 71.1453 87.7632 76.1259 91.8059 80.6214L75.3441 96.8568L79.9366 101.449L96.1073 85.2785L106.166 95.3368L108.623 88.7391ZM126.832 72.3419H120.363L105.81 111.152H112.278L115.9 101.449H131.263L134.917 111.152H141.385L126.832 72.3419ZM118.358 94.981L123.598 80.9771L128.837 94.981H118.358Z" fill="white"/>
</g>
<defs>
<clipPath id="clip0_994_16">
<rect width="211" height="157" fill="white"/>
</clipPath>
</defs>
</svg>
